<?xml version="1.0" encoding="UTF-8" standalone="no"?>
<!DOCTYPE svg PUBLIC "-//W3C//DTD SVG 1.1//EN"
 "http://www.w3.org/Graphics/SVG/1.1/DTD/svg11.dtd">
<!-- Generated by graphviz version 2.40.1 (20161225.0304)
 -->
<!-- Title: Legend Pages: 1 -->
<svg width="255pt" height="44pt"
 viewBox="0.00 0.00 255.10 44.00" xmlns="http://www.w3.org/2000/svg" xmlns:xlink="http://www.w3.org/1999/xlink">
<g id="graph0" class="graph" transform="scale(1 1) rotate(0) translate(4 40)">
<title>Legend</title>
<polygon fill="#ffffff" stroke="transparent" points="-4,4 -4,-40 251.0976,-40 251.0976,4 -4,4"/>
<!-- Class1 -->
<g id="node1" class="node">
<title>Class1</title>
<path fill="#4a5659" stroke="#4a5659" d="M235.0976,-36C235.0976,-36 205.0976,-36 205.0976,-36 199.0976,-36 193.0976,-30 193.0976,-24 193.0976,-24 193.0976,-12 193.0976,-12 193.0976,-6 199.0976,0 205.0976,0 205.0976,0 235.0976,0 235.0976,0 241.0976,0 247.0976,-6 247.0976,-12 247.0976,-12 247.0976,-24 247.0976,-24 247.0976,-30 241.0976,-36 235.0976,-36"/>
<text text-anchor="middle" x="220.0976" y="-13.8" font-family="Times,serif" font-size="14.00" fill="#ffffff">Class</text>
</g>
<!-- Interface1 -->
<g id="node2" class="node">
<title>Interface1</title>
<path fill="#e8bd36" stroke="#e8bd36" d="M53.5967,-36C53.5967,-36 12.1341,-36 12.1341,-36 6.1341,-36 .1341,-30 .1341,-24 .1341,-24 .1341,-12 .1341,-12 .1341,-6 6.1341,0 12.1341,0 12.1341,0 53.5967,0 53.5967,0 59.5967,0 65.5967,-6 65.5967,-12 65.5967,-12 65.5967,-24 65.5967,-24 65.5967,-30 59.5967,-36 53.5967,-36"/>
<text text-anchor="middle" x="32.8654" y="-13.8" font-family="Times,serif" font-size="14.00" fill="#ffffff">Interface</text>
</g>
<!-- Interface1&#45;&gt;Class1 -->
<g id="edge1" class="edge">
<title>Interface1&#45;&gt;Class1</title>
<path fill="none" stroke="#7f7f7f" d="M65.9078,-18C98.6358,-18 148.6733,-18 182.8076,-18"/>
<polygon fill="#7f7f7f" stroke="#7f7f7f" points="182.8537,-21.5001 192.8537,-18 182.8536,-14.5001 182.8537,-21.5001"/>
<text text-anchor="middle" x="129.4142" y="-22.2" font-family="Times,serif" font-size="14.00" fill="#000000">Implemented by</text>
</g>
</g>
</svg>
