<?xml version="1.0" encoding="UTF-8" standalone="no"?>
<!DOCTYPE svg PUBLIC "-//W3C//DTD SVG 1.1//EN"
 "http://www.w3.org/Graphics/SVG/1.1/DTD/svg11.dtd">
<!-- Generated by graphviz version 2.40.1 (20161225.0304)
 -->
<!-- Title: Legend Pages: 1 -->
<svg width="255pt" height="44pt"
 viewBox="0.00 0.00 255.09 44.00" xmlns="http://www.w3.org/2000/svg" xmlns:xlink="http://www.w3.org/1999/xlink">
<g id="graph0" class="graph" transform="scale(1 1) rotate(0) translate(4 40)">
<title>Legend</title>
<polygon fill="#ffffff" stroke="transparent" points="-4,4 -4,-40 251.0938,-40 251.0938,4 -4,4"/>
<!-- Class1 -->
<g id="node1" class="node">
<title>Class1</title>
<path fill="#4a5659" stroke="#4a5659" d="M235.0938,-36C235.0938,-36 205.0938,-36 205.0938,-36 199.0938,-36 193.0938,-30 193.0938,-24 193.0938,-24 193.0938,-12 193.0938,-12 193.0938,-6 199.0938,0 205.0938,0 205.0938,0 235.0938,0 235.0938,0 241.0938,0 247.0938,-6 247.0938,-12 247.0938,-12 247.0938,-24 247.0938,-24 247.0938,-30 241.0938,-36 235.0938,-36"/>
<text text-anchor="middle" x="220.0938" y="-13.8" font-family="Times,serif" font-size="14.00" fill="#ffffff">Class</text>
</g>
<!-- Interface1 -->
<g id="node2" class="node">
<title>Interface1</title>
<path fill="#e8bd36" stroke="#e8bd36" d="M53.5977,-36C53.5977,-36 12.1337,-36 12.1337,-36 6.1337,-36 .1337,-30 .1337,-24 .1337,-24 .1337,-12 .1337,-12 .1337,-6 6.1337,0 12.1337,0 12.1337,0 53.5977,0 53.5977,0 59.5977,0 65.5977,-6 65.5977,-12 65.5977,-12 65.5977,-24 65.5977,-24 65.5977,-30 59.5977,-36 53.5977,-36"/>
<text text-anchor="middle" x="32.8657" y="-13.8" font-family="Times,serif" font-size="14.00" fill="#ffffff">Interface</text>
</g>
<!-- Interface1&#45;&gt;Class1 -->
<g id="edge1" class="edge">
<title>Interface1&#45;&gt;Class1</title>
<path fill="none" stroke="#7f7f7f" d="M65.9074,-18C98.6347,-18 148.6711,-18 182.8046,-18"/>
<polygon fill="#7f7f7f" stroke="#7f7f7f" points="182.8504,-21.5001 192.8504,-18 182.8504,-14.5001 182.8504,-21.5001"/>
<text text-anchor="middle" x="129.4126" y="-20.8" font-family="Times,serif" font-size="14.00" fill="#000000">Implemented by</text>
</g>
</g>
</svg>
