<?xml version="1.0" encoding="UTF-8" standalone="no"?>
<!DOCTYPE svg PUBLIC "-//W3C//DTD SVG 1.1//EN"
 "http://www.w3.org/Graphics/SVG/1.1/DTD/svg11.dtd">
<!-- Generated by graphviz version 2.40.1 (20161225.0304)
 -->
<!-- Title: Collections Pages: 1 -->
<svg width="704pt" height="188pt"
 viewBox="0.00 0.00 704.15 188.00" xmlns="http://www.w3.org/2000/svg" xmlns:xlink="http://www.w3.org/1999/xlink">
<g id="graph0" class="graph" transform="scale(1 1) rotate(0) translate(4 184)">
<title>Collections</title>
<polygon fill="#ffffff" stroke="transparent" points="-4,4 -4,-184 700.1473,-184 700.1473,4 -4,4"/>
<!-- Set -->
<g id="node1" class="node">
<title>Set</title>
<path fill="#4a5659" stroke="#4a5659" d="M136,-36C136,-36 106,-36 106,-36 100,-36 94,-30 94,-24 94,-24 94,-12 94,-12 94,-6 100,0 106,0 106,0 136,0 136,0 142,0 148,-6 148,-12 148,-12 148,-24 148,-24 148,-30 142,-36 136,-36"/>
<text text-anchor="middle" x="121" y="-13.8" font-family="Times,serif" font-size="14.00" fill="#ffffff">Set</text>
</g>
<!-- Map -->
<g id="node2" class="node">
<title>Map</title>
<path fill="#4a5659" stroke="#4a5659" d="M256,-36C256,-36 226,-36 226,-36 220,-36 214,-30 214,-24 214,-24 214,-12 214,-12 214,-6 220,0 226,0 226,0 256,0 256,0 262,0 268,-6 268,-12 268,-12 268,-24 268,-24 268,-30 262,-36 256,-36"/>
<text text-anchor="middle" x="241" y="-13.8" font-family="Times,serif" font-size="14.00" fill="#ffffff">Map</text>
</g>
<!-- Array -->
<g id="node3" class="node">
<title>Array</title>
<path fill="#4a5659" stroke="#4a5659" d="M383,-36C383,-36 353,-36 353,-36 347,-36 341,-30 341,-24 341,-24 341,-12 341,-12 341,-6 347,0 353,0 353,0 383,0 383,0 389,0 395,-6 395,-12 395,-12 395,-24 395,-24 395,-30 389,-36 383,-36"/>
<text text-anchor="middle" x="368" y="-13.8" font-family="Times,serif" font-size="14.00" fill="#ffffff">Array</text>
</g>
<!-- String -->
<g id="node4" class="node">
<title>String</title>
<path fill="#4a5659" stroke="#4a5659" d="M42,-108C42,-108 12,-108 12,-108 6,-108 0,-102 0,-96 0,-96 0,-84 0,-84 0,-78 6,-72 12,-72 12,-72 42,-72 42,-72 48,-72 54,-78 54,-84 54,-84 54,-96 54,-96 54,-102 48,-108 42,-108"/>
<text text-anchor="middle" x="27" y="-85.8" font-family="Times,serif" font-size="14.00" fill="#ffffff">String</text>
</g>
<!-- WeakMap -->
<g id="node5" class="node">
<title>WeakMap</title>
<path fill="#4a5659" stroke="#4a5659" d="M504.3036,-108C504.3036,-108 453.6964,-108 453.6964,-108 447.6964,-108 441.6964,-102 441.6964,-96 441.6964,-96 441.6964,-84 441.6964,-84 441.6964,-78 447.6964,-72 453.6964,-72 453.6964,-72 504.3036,-72 504.3036,-72 510.3036,-72 516.3036,-78 516.3036,-84 516.3036,-84 516.3036,-96 516.3036,-96 516.3036,-102 510.3036,-108 504.3036,-108"/>
<text text-anchor="middle" x="479" y="-85.8" font-family="Times,serif" font-size="14.00" fill="#ffffff">WeakMap</text>
</g>
<!-- WeakSet -->
<g id="node6" class="node">
<title>WeakSet</title>
<path fill="#4a5659" stroke="#4a5659" d="M652.0332,-108C652.0332,-108 609.9668,-108 609.9668,-108 603.9668,-108 597.9668,-102 597.9668,-96 597.9668,-96 597.9668,-84 597.9668,-84 597.9668,-78 603.9668,-72 609.9668,-72 609.9668,-72 652.0332,-72 652.0332,-72 658.0332,-72 664.0332,-78 664.0332,-84 664.0332,-84 664.0332,-96 664.0332,-96 664.0332,-102 658.0332,-108 652.0332,-108"/>
<text text-anchor="middle" x="631" y="-85.8" font-family="Times,serif" font-size="14.00" fill="#ffffff">WeakSet</text>
</g>
<!-- Iterable -->
<g id="node7" class="node">
<title>Iterable</title>
<path fill="#e8bd36" stroke="#e8bd36" d="M198.2467,-180C198.2467,-180 163.7533,-180 163.7533,-180 157.7533,-180 151.7533,-174 151.7533,-168 151.7533,-168 151.7533,-156 151.7533,-156 151.7533,-150 157.7533,-144 163.7533,-144 163.7533,-144 198.2467,-144 198.2467,-144 204.2467,-144 210.2467,-150 210.2467,-156 210.2467,-156 210.2467,-168 210.2467,-168 210.2467,-174 204.2467,-180 198.2467,-180"/>
<text text-anchor="middle" x="181" y="-157.8" font-family="Times,serif" font-size="14.00" fill="#ffffff">Iterable</text>
</g>
<!-- Iterable&#45;&gt;String -->
<g id="edge4" class="edge">
<title>Iterable&#45;&gt;String</title>
<path fill="none" stroke="#7f7f7f" d="M151.287,-148.7439C129.3101,-138.864 98.4576,-124.8381 63.5342,-108.189"/>
<polygon fill="#7f7f7f" stroke="#7f7f7f" points="64.6089,-104.8232 54.0776,-103.6638 61.5873,-111.1375 64.6089,-104.8232"/>
</g>
<!-- $ReadOnlySet -->
<g id="node8" class="node">
<title>$ReadOnlySet</title>
<path fill="#e8bd36" stroke="#e8bd36" d="M157.6514,-108C157.6514,-108 84.3486,-108 84.3486,-108 78.3486,-108 72.3486,-102 72.3486,-96 72.3486,-96 72.3486,-84 72.3486,-84 72.3486,-78 78.3486,-72 84.3486,-72 84.3486,-72 157.6514,-72 157.6514,-72 163.6514,-72 169.6514,-78 169.6514,-84 169.6514,-84 169.6514,-96 169.6514,-96 169.6514,-102 163.6514,-108 157.6514,-108"/>
<text text-anchor="middle" x="121" y="-85.8" font-family="Times,serif" font-size="14.00" fill="#ffffff">$ReadOnlySet</text>
</g>
<!-- Iterable&#45;&gt;$ReadOnlySet -->
<g id="edge1" class="edge">
<title>Iterable&#45;&gt;$ReadOnlySet</title>
<path fill="none" stroke="#7f7f7f" d="M165.8595,-143.8314C158.8783,-135.454 150.4609,-125.3531 142.8124,-116.1749"/>
<polygon fill="#7f7f7f" stroke="#7f7f7f" points="145.4351,-113.8548 136.3444,-108.4133 140.0575,-118.3362 145.4351,-113.8548"/>
</g>
<!-- $ReadOnlyMap -->
<g id="node9" class="node">
<title>$ReadOnlyMap</title>
<path fill="#e8bd36" stroke="#e8bd36" d="M281.923,-108C281.923,-108 200.077,-108 200.077,-108 194.077,-108 188.077,-102 188.077,-96 188.077,-96 188.077,-84 188.077,-84 188.077,-78 194.077,-72 200.077,-72 200.077,-72 281.923,-72 281.923,-72 287.923,-72 293.923,-78 293.923,-84 293.923,-84 293.923,-96 293.923,-96 293.923,-102 287.923,-108 281.923,-108"/>
<text text-anchor="middle" x="241" y="-85.8" font-family="Times,serif" font-size="14.00" fill="#ffffff">$ReadOnlyMap</text>
</g>
<!-- Iterable&#45;&gt;$ReadOnlyMap -->
<g id="edge2" class="edge">
<title>Iterable&#45;&gt;$ReadOnlyMap</title>
<path fill="none" stroke="#7f7f7f" d="M196.1405,-143.8314C203.1217,-135.454 211.5391,-125.3531 219.1876,-116.1749"/>
<polygon fill="#7f7f7f" stroke="#7f7f7f" points="221.9425,-118.3362 225.6556,-108.4133 216.5649,-113.8548 221.9425,-118.3362"/>
</g>
<!-- $ReadOnlyArray -->
<g id="node10" class="node">
<title>$ReadOnlyArray</title>
<path fill="#e8bd36" stroke="#e8bd36" d="M412.4061,-108C412.4061,-108 323.5939,-108 323.5939,-108 317.5939,-108 311.5939,-102 311.5939,-96 311.5939,-96 311.5939,-84 311.5939,-84 311.5939,-78 317.5939,-72 323.5939,-72 323.5939,-72 412.4061,-72 412.4061,-72 418.4061,-72 424.4061,-78 424.4061,-84 424.4061,-84 424.4061,-96 424.4061,-96 424.4061,-102 418.4061,-108 412.4061,-108"/>
<text text-anchor="middle" x="368" y="-85.8" font-family="Times,serif" font-size="14.00" fill="#ffffff">$ReadOnlyArray</text>
</g>
<!-- Iterable&#45;&gt;$ReadOnlyArray -->
<g id="edge3" class="edge">
<title>Iterable&#45;&gt;$ReadOnlyArray</title>
<path fill="none" stroke="#7f7f7f" d="M210.6307,-150.5914C237.626,-140.1975 278.2275,-124.5648 311.4279,-111.7818"/>
<polygon fill="#7f7f7f" stroke="#7f7f7f" points="312.9487,-114.9468 321.0232,-108.0873 310.4334,-108.4142 312.9487,-114.9468"/>
</g>
<!-- $ReadOnlySet&#45;&gt;Set -->
<g id="edge6" class="edge">
<title>$ReadOnlySet&#45;&gt;Set</title>
<path fill="none" stroke="#7f7f7f" d="M121,-71.8314C121,-64.131 121,-54.9743 121,-46.4166"/>
<polygon fill="#7f7f7f" stroke="#7f7f7f" points="124.5001,-46.4132 121,-36.4133 117.5001,-46.4133 124.5001,-46.4132"/>
</g>
<!-- $ReadOnlyMap&#45;&gt;Map -->
<g id="edge7" class="edge">
<title>$ReadOnlyMap&#45;&gt;Map</title>
<path fill="none" stroke="#7f7f7f" d="M241,-71.8314C241,-64.131 241,-54.9743 241,-46.4166"/>
<polygon fill="#7f7f7f" stroke="#7f7f7f" points="244.5001,-46.4132 241,-36.4133 237.5001,-46.4133 244.5001,-46.4132"/>
</g>
<!-- $ReadOnlyArray&#45;&gt;Array -->
<g id="edge5" class="edge">
<title>$ReadOnlyArray&#45;&gt;Array</title>
<path fill="none" stroke="#7f7f7f" d="M368,-71.8314C368,-64.131 368,-54.9743 368,-46.4166"/>
<polygon fill="#7f7f7f" stroke="#7f7f7f" points="371.5001,-46.4132 368,-36.4133 364.5001,-46.4133 371.5001,-46.4132"/>
</g>
<!-- $ReadOnlyWeakMap -->
<g id="node11" class="node">
<title>$ReadOnlyWeakMap</title>
<path fill="#e8bd36" stroke="#e8bd36" d="M536.066,-180C536.066,-180 421.934,-180 421.934,-180 415.934,-180 409.934,-174 409.934,-168 409.934,-168 409.934,-156 409.934,-156 409.934,-150 415.934,-144 421.934,-144 421.934,-144 536.066,-144 536.066,-144 542.066,-144 548.066,-150 548.066,-156 548.066,-156 548.066,-168 548.066,-168 548.066,-174 542.066,-180 536.066,-180"/>
<text text-anchor="middle" x="479" y="-157.8" font-family="Times,serif" font-size="14.00" fill="#ffffff">$ReadOnlyWeakMap</text>
</g>
<!-- $ReadOnlyWeakMap&#45;&gt;WeakMap -->
<g id="edge8" class="edge">
<title>$ReadOnlyWeakMap&#45;&gt;WeakMap</title>
<path fill="none" stroke="#7f7f7f" d="M479,-143.8314C479,-136.131 479,-126.9743 479,-118.4166"/>
<polygon fill="#7f7f7f" stroke="#7f7f7f" points="482.5001,-118.4132 479,-108.4133 475.5001,-118.4133 482.5001,-118.4132"/>
</g>
<!-- $ReadOnlyWeakSet -->
<g id="node12" class="node">
<title>$ReadOnlyWeakSet</title>
<path fill="#e8bd36" stroke="#e8bd36" d="M684.2949,-180C684.2949,-180 577.7051,-180 577.7051,-180 571.7051,-180 565.7051,-174 565.7051,-168 565.7051,-168 565.7051,-156 565.7051,-156 565.7051,-150 571.7051,-144 577.7051,-144 577.7051,-144 684.2949,-144 684.2949,-144 690.2949,-144 696.2949,-150 696.2949,-156 696.2949,-156 696.2949,-168 696.2949,-168 696.2949,-174 690.2949,-180 684.2949,-180"/>
<text text-anchor="middle" x="631" y="-157.8" font-family="Times,serif" font-size="14.00" fill="#ffffff">$ReadOnlyWeakSet</text>
</g>
<!-- $ReadOnlyWeakSet&#45;&gt;WeakSet -->
<g id="edge9" class="edge">
<title>$ReadOnlyWeakSet&#45;&gt;WeakSet</title>
<path fill="none" stroke="#7f7f7f" d="M631,-143.8314C631,-136.131 631,-126.9743 631,-118.4166"/>
<polygon fill="#7f7f7f" stroke="#7f7f7f" points="634.5001,-118.4132 631,-108.4133 627.5001,-118.4133 634.5001,-118.4132"/>
</g>
</g>
</svg>
