<?xml version="1.0" encoding="UTF-8" standalone="no"?>
<!DOCTYPE svg PUBLIC "-//W3C//DTD SVG 1.1//EN"
 "http://www.w3.org/Graphics/SVG/1.1/DTD/svg11.dtd">
<!-- Generated by graphviz version 2.40.1 (20161225.0304)
 -->
<!-- Title: Collections Pages: 1 -->
<svg width="702pt" height="188pt"
 viewBox="0.00 0.00 701.59 188.00" xmlns="http://www.w3.org/2000/svg" xmlns:xlink="http://www.w3.org/1999/xlink">
<g id="graph0" class="graph" transform="scale(1 1) rotate(0) translate(4 184)">
<title>Collections</title>
<polygon fill="#ffffff" stroke="transparent" points="-4,4 -4,-184 697.5913,-184 697.5913,4 -4,4"/>
<!-- Set -->
<g id="node1" class="node">
<title>Set</title>
<path fill="#4a5659" stroke="#4a5659" d="M266,-36C266,-36 236,-36 236,-36 230,-36 224,-30 224,-24 224,-24 224,-12 224,-12 224,-6 230,0 236,0 236,0 266,0 266,0 272,0 278,-6 278,-12 278,-12 278,-24 278,-24 278,-30 272,-36 266,-36"/>
<text text-anchor="middle" x="251" y="-13.8" font-family="Times,serif" font-size="14.00" fill="#ffffff">Set</text>
</g>
<!-- Map -->
<g id="node2" class="node">
<title>Map</title>
<path fill="#4a5659" stroke="#4a5659" d="M386,-36C386,-36 356,-36 356,-36 350,-36 344,-30 344,-24 344,-24 344,-12 344,-12 344,-6 350,0 356,0 356,0 386,0 386,0 392,0 398,-6 398,-12 398,-12 398,-24 398,-24 398,-30 392,-36 386,-36"/>
<text text-anchor="middle" x="371" y="-13.8" font-family="Times,serif" font-size="14.00" fill="#ffffff">Map</text>
</g>
<!-- Array -->
<g id="node3" class="node">
<title>Array</title>
<path fill="#4a5659" stroke="#4a5659" d="M143,-36C143,-36 113,-36 113,-36 107,-36 101,-30 101,-24 101,-24 101,-12 101,-12 101,-6 107,0 113,0 113,0 143,0 143,0 149,0 155,-6 155,-12 155,-12 155,-24 155,-24 155,-30 149,-36 143,-36"/>
<text text-anchor="middle" x="128" y="-13.8" font-family="Times,serif" font-size="14.00" fill="#ffffff">Array</text>
</g>
<!-- String -->
<g id="node4" class="node">
<title>String</title>
<path fill="#4a5659" stroke="#4a5659" d="M42,-108C42,-108 12,-108 12,-108 6,-108 0,-102 0,-96 0,-96 0,-84 0,-84 0,-78 6,-72 12,-72 12,-72 42,-72 42,-72 48,-72 54,-78 54,-84 54,-84 54,-96 54,-96 54,-102 48,-108 42,-108"/>
<text text-anchor="middle" x="27" y="-85.8" font-family="Times,serif" font-size="14.00" fill="#ffffff">String</text>
</g>
<!-- WeakMap -->
<g id="node5" class="node">
<title>WeakMap</title>
<path fill="#4a5659" stroke="#4a5659" d="M502.6897,-108C502.6897,-108 453.3103,-108 453.3103,-108 447.3103,-108 441.3103,-102 441.3103,-96 441.3103,-96 441.3103,-84 441.3103,-84 441.3103,-78 447.3103,-72 453.3103,-72 453.3103,-72 502.6897,-72 502.6897,-72 508.6897,-72 514.6897,-78 514.6897,-84 514.6897,-84 514.6897,-96 514.6897,-96 514.6897,-102 508.6897,-108 502.6897,-108"/>
<text text-anchor="middle" x="478" y="-85.8" font-family="Times,serif" font-size="14.00" fill="#ffffff">WeakMap</text>
</g>
<!-- WeakSet -->
<g id="node6" class="node">
<title>WeakSet</title>
<path fill="#4a5659" stroke="#4a5659" d="M649.9183,-108C649.9183,-108 608.0817,-108 608.0817,-108 602.0817,-108 596.0817,-102 596.0817,-96 596.0817,-96 596.0817,-84 596.0817,-84 596.0817,-78 602.0817,-72 608.0817,-72 608.0817,-72 649.9183,-72 649.9183,-72 655.9183,-72 661.9183,-78 661.9183,-84 661.9183,-84 661.9183,-96 661.9183,-96 661.9183,-102 655.9183,-108 649.9183,-108"/>
<text text-anchor="middle" x="629" y="-85.8" font-family="Times,serif" font-size="14.00" fill="#ffffff">WeakSet</text>
</g>
<!-- Iterable -->
<g id="node7" class="node">
<title>Iterable</title>
<path fill="#e8bd36" stroke="#e8bd36" d="M207.2457,-180C207.2457,-180 172.7543,-180 172.7543,-180 166.7543,-180 160.7543,-174 160.7543,-168 160.7543,-168 160.7543,-156 160.7543,-156 160.7543,-150 166.7543,-144 172.7543,-144 172.7543,-144 207.2457,-144 207.2457,-144 213.2457,-144 219.2457,-150 219.2457,-156 219.2457,-156 219.2457,-168 219.2457,-168 219.2457,-174 213.2457,-180 207.2457,-180"/>
<text text-anchor="middle" x="190" y="-157.8" font-family="Times,serif" font-size="14.00" fill="#ffffff">Iterable</text>
</g>
<!-- Iterable&#45;&gt;String -->
<g id="edge4" class="edge">
<title>Iterable&#45;&gt;String</title>
<path fill="none" stroke="#7f7f7f" d="M160.5182,-150.0679C136.5541,-140.2366 101.715,-125.6456 63.3352,-108.036"/>
<polygon fill="#7f7f7f" stroke="#7f7f7f" points="64.5863,-104.7586 54.0402,-103.7435 61.6514,-111.1137 64.5863,-104.7586"/>
</g>
<!-- $ReadOnlyArray -->
<g id="node8" class="node">
<title>$ReadOnlyArray</title>
<path fill="#e8bd36" stroke="#e8bd36" d="M172.4148,-108C172.4148,-108 83.5852,-108 83.5852,-108 77.5852,-108 71.5852,-102 71.5852,-96 71.5852,-96 71.5852,-84 71.5852,-84 71.5852,-78 77.5852,-72 83.5852,-72 83.5852,-72 172.4148,-72 172.4148,-72 178.4148,-72 184.4148,-78 184.4148,-84 184.4148,-84 184.4148,-96 184.4148,-96 184.4148,-102 178.4148,-108 172.4148,-108"/>
<text text-anchor="middle" x="128" y="-85.8" font-family="Times,serif" font-size="14.00" fill="#ffffff">$ReadOnlyArray</text>
</g>
<!-- Iterable&#45;&gt;$ReadOnlyArray -->
<g id="edge1" class="edge">
<title>Iterable&#45;&gt;$ReadOnlyArray</title>
<path fill="none" stroke="#7f7f7f" d="M174.3548,-143.8314C167.1409,-135.454 158.443,-125.3531 150.5395,-116.1749"/>
<polygon fill="#7f7f7f" stroke="#7f7f7f" points="153.0333,-113.7071 143.8559,-108.4133 147.7289,-118.2748 153.0333,-113.7071"/>
</g>
<!-- $ReadOnlySet -->
<g id="node9" class="node">
<title>$ReadOnlySet</title>
<path fill="#e8bd36" stroke="#e8bd36" d="M287.6559,-108C287.6559,-108 214.3441,-108 214.3441,-108 208.3441,-108 202.3441,-102 202.3441,-96 202.3441,-96 202.3441,-84 202.3441,-84 202.3441,-78 208.3441,-72 214.3441,-72 214.3441,-72 287.6559,-72 287.6559,-72 293.6559,-72 299.6559,-78 299.6559,-84 299.6559,-84 299.6559,-96 299.6559,-96 299.6559,-102 293.6559,-108 287.6559,-108"/>
<text text-anchor="middle" x="251" y="-85.8" font-family="Times,serif" font-size="14.00" fill="#ffffff">$ReadOnlySet</text>
</g>
<!-- Iterable&#45;&gt;$ReadOnlySet -->
<g id="edge2" class="edge">
<title>Iterable&#45;&gt;$ReadOnlySet</title>
<path fill="none" stroke="#7f7f7f" d="M205.3929,-143.8314C212.4904,-135.454 221.048,-125.3531 228.824,-116.1749"/>
<polygon fill="#7f7f7f" stroke="#7f7f7f" points="231.6061,-118.3056 235.3999,-108.4133 226.2652,-113.7807 231.6061,-118.3056"/>
</g>
<!-- $ReadOnlyMap -->
<g id="node10" class="node">
<title>$ReadOnlyMap</title>
<path fill="#e8bd36" stroke="#e8bd36" d="M411.9286,-108C411.9286,-108 330.0714,-108 330.0714,-108 324.0714,-108 318.0714,-102 318.0714,-96 318.0714,-96 318.0714,-84 318.0714,-84 318.0714,-78 324.0714,-72 330.0714,-72 330.0714,-72 411.9286,-72 411.9286,-72 417.9286,-72 423.9286,-78 423.9286,-84 423.9286,-84 423.9286,-96 423.9286,-96 423.9286,-102 417.9286,-108 411.9286,-108"/>
<text text-anchor="middle" x="371" y="-85.8" font-family="Times,serif" font-size="14.00" fill="#ffffff">$ReadOnlyMap</text>
</g>
<!-- Iterable&#45;&gt;$ReadOnlyMap -->
<g id="edge3" class="edge">
<title>Iterable&#45;&gt;$ReadOnlyMap</title>
<path fill="none" stroke="#7f7f7f" d="M219.4836,-150.2717C245.5379,-139.9076 284.2216,-124.5196 315.9796,-111.8866"/>
<polygon fill="#7f7f7f" stroke="#7f7f7f" points="317.5935,-115.0114 325.5916,-108.063 315.0061,-108.5071 317.5935,-115.0114"/>
</g>
<!-- $ReadOnlyArray&#45;&gt;Array -->
<g id="edge5" class="edge">
<title>$ReadOnlyArray&#45;&gt;Array</title>
<path fill="none" stroke="#7f7f7f" d="M128,-71.8314C128,-64.131 128,-54.9743 128,-46.4166"/>
<polygon fill="#7f7f7f" stroke="#7f7f7f" points="131.5001,-46.4132 128,-36.4133 124.5001,-46.4133 131.5001,-46.4132"/>
</g>
<!-- $ReadOnlySet&#45;&gt;Set -->
<g id="edge6" class="edge">
<title>$ReadOnlySet&#45;&gt;Set</title>
<path fill="none" stroke="#7f7f7f" d="M251,-71.8314C251,-64.131 251,-54.9743 251,-46.4166"/>
<polygon fill="#7f7f7f" stroke="#7f7f7f" points="254.5001,-46.4132 251,-36.4133 247.5001,-46.4133 254.5001,-46.4132"/>
</g>
<!-- $ReadOnlyMap&#45;&gt;Map -->
<g id="edge7" class="edge">
<title>$ReadOnlyMap&#45;&gt;Map</title>
<path fill="none" stroke="#7f7f7f" d="M371,-71.8314C371,-64.131 371,-54.9743 371,-46.4166"/>
<polygon fill="#7f7f7f" stroke="#7f7f7f" points="374.5001,-46.4132 371,-36.4133 367.5001,-46.4133 374.5001,-46.4132"/>
</g>
<!-- $ReadOnlyWeakSet -->
<g id="node11" class="node">
<title>$ReadOnlyWeakSet</title>
<path fill="#e8bd36" stroke="#e8bd36" d="M681.6827,-180C681.6827,-180 576.3173,-180 576.3173,-180 570.3173,-180 564.3173,-174 564.3173,-168 564.3173,-168 564.3173,-156 564.3173,-156 564.3173,-150 570.3173,-144 576.3173,-144 576.3173,-144 681.6827,-144 681.6827,-144 687.6827,-144 693.6827,-150 693.6827,-156 693.6827,-156 693.6827,-168 693.6827,-168 693.6827,-174 687.6827,-180 681.6827,-180"/>
<text text-anchor="middle" x="629" y="-157.8" font-family="Times,serif" font-size="14.00" fill="#ffffff">$ReadOnlyWeakSet</text>
</g>
<!-- $ReadOnlyWeakSet&#45;&gt;WeakSet -->
<g id="edge8" class="edge">
<title>$ReadOnlyWeakSet&#45;&gt;WeakSet</title>
<path fill="none" stroke="#7f7f7f" d="M629,-143.8314C629,-136.131 629,-126.9743 629,-118.4166"/>
<polygon fill="#7f7f7f" stroke="#7f7f7f" points="632.5001,-118.4132 629,-108.4133 625.5001,-118.4133 632.5001,-118.4132"/>
</g>
<!-- $ReadOnlyWeakMap -->
<g id="node12" class="node">
<title>$ReadOnlyWeakMap</title>
<path fill="#e8bd36" stroke="#e8bd36" d="M534.4551,-180C534.4551,-180 421.5449,-180 421.5449,-180 415.5449,-180 409.5449,-174 409.5449,-168 409.5449,-168 409.5449,-156 409.5449,-156 409.5449,-150 415.5449,-144 421.5449,-144 421.5449,-144 534.4551,-144 534.4551,-144 540.4551,-144 546.4551,-150 546.4551,-156 546.4551,-156 546.4551,-168 546.4551,-168 546.4551,-174 540.4551,-180 534.4551,-180"/>
<text text-anchor="middle" x="478" y="-157.8" font-family="Times,serif" font-size="14.00" fill="#ffffff">$ReadOnlyWeakMap</text>
</g>
<!-- $ReadOnlyWeakMap&#45;&gt;WeakMap -->
<g id="edge9" class="edge">
<title>$ReadOnlyWeakMap&#45;&gt;WeakMap</title>
<path fill="none" stroke="#7f7f7f" d="M478,-143.8314C478,-136.131 478,-126.9743 478,-118.4166"/>
<polygon fill="#7f7f7f" stroke="#7f7f7f" points="481.5001,-118.4132 478,-108.4133 474.5001,-118.4133 481.5001,-118.4132"/>
</g>
</g>
</svg>
