<svg class="stackoverflow" xmlns="http://www.w3.org/2000/svg" xmlns:xlink="http://www.w3.org/1999/xlink" x="0px" y="0px"
	 viewBox="0 0 32.6 31.8" style="enable-background:new 0 0 32.6 31.8;" xml:space="preserve">
<polygon fill="#ffffff" fill-opacity="0.7" points="25.4,29 25.4,20.5 28.3,20.5 28.3,31.8 2.8,31.8 2.8,20.5 5.6,20.5 5.6,29 "/>
<path fill="#ffffff" fill-opacity="0.7" d="M8.7,19.7l13.9,2.9l0.6-2.8L9.3,16.9L8.7,19.7z M10.5,13l12.9,6l1.2-2.6l-12.9-6L10.5,13z M14.1,6.7L25,15.8l1.8-2.2
	L15.9,4.6L14.1,6.7z M21.2,0l-2.3,1.7l8.4,11.4l2.3-1.7L21.2,0z M8.4,26.1h14.2v-2.8H8.4V26.1z"/>
</svg>
