<svg class="flow-logo-mark-only" xmlns="http://www.w3.org/2000/svg" viewBox="0 0 242.45 252.33">
  <title>Flow logo mark</title>
  <path fill="#ffca20" opacity=".7" d="M224.74 109l-84.11-84.1h84.11z"/>
  <path fill="#ffca20" opacity=".7" d="M81.72 0h47.68l36.44 36.43H81.72z"/>
  <path fill="#ffcf39" opacity=".9" d="M84.45 84.12L.34 0h101.13v84.11zm73.89 84.1l84.11 84.11h-84.11z"/>
  <path fill="#ffe490" opacity=".7" d="M101.47 168.23l-84.1-84.12h84.11v84.11zm90.58-42.57L125 58.57h67.08zm7.84 118.84l-76.28-76.27h76.28z"/>
  <path fill="#fcbc7c" opacity=".9" d="M101.47 67l-67-67h67z"/>
  <path fill="#f9a040" opacity=".8" d="M123.95 168.22l84.11 84.11h-84.11z"/>
  <path fill="#f9a040" opacity=".7" d="M209.08 201.8l-84-84h84z"/>
  <path fill="#ffcf39" opacity=".9" d="M125 58.57l83.09 83.09H125z"/>
  <path fill="#ffc737" opacity=".7" d="M101.47 252L0 150.51h101.47V252z"/>
</svg>
