<svg class="fboss-logo" xmlns="http://www.w3.org/2000/svg" viewBox="0 0 255.8 82">
	<path class="fboss-logo-text" fill="#ffffff" d="M96.8 36.1V14.6h10.9v2.3h-8.1v7.5h7.4v2.3h-7.4v9.5h-2.8zM121.6 36.1h-2.3l-.2-1.3c-.9.7-3.1 1.6-5.1 1.6-3.4 0-4.8-2-4.8-5 0-3.2 1.6-4.8 5-4.8 2 0 3.8.5 4.7.9V25c0-2.1-.6-2.9-3-2.9-1.4 0-2.8.2-4.3.6l-.4-2.2c1.4-.5 3.3-.7 5-.7 3.7 0 5.5 1.6 5.5 5.1v11.2zm-2.7-6.7c-.9-.3-2.7-.7-4.3-.7-2.2 0-2.7 1-2.7 2.8 0 2 .6 2.9 2.5 2.9s3.6-.7 4.5-1.4v-3.6zM135.4 20.5l-.4 2.1c-.9-.3-2.3-.6-3.4-.6-3.6 0-3.9 2.4-3.9 6.1 0 3.8.3 6.1 3.9 6.1 1.1 0 2.5-.3 3.4-.6l.4 2.1c-.9.4-2.4.7-3.8.7-5.2 0-6.6-3.4-6.6-8.3s1.3-8.3 6.6-8.3c1.4 0 2.9.3 3.8.7zM140.7 29.3c.2 3.4 1 5 4.3 5 1.7 0 3.5-.4 4.7-.9l.4 2.1c-1.3.6-3.4 1-5.2 1-5.8 0-7-3.9-7-8.4 0-4.6 1.5-8.2 6.4-8.2 4.4 0 6.2 3.1 6.2 6.9v2.6h-9.8zm0-2.1h7.3v-.6c0-3-.9-4.8-3.6-4.8-3.1 0-3.7 2.2-3.7 5.4zM161.3 36.5c-1.8 0-3.5-.9-4.4-1.9l-.2 1.6h-2.3V13.3h2.7v8.1c.8-.8 2.3-1.6 4-1.6 4.5 0 6.1 3.4 6.1 8.4 0 4.6-1.3 8.3-5.9 8.3zm-4.2-3.8c1.2 1.1 2.6 1.6 3.8 1.6 3.1 0 3.7-2.4 3.7-6.1 0-3.6-.7-6.2-3.8-6.2-1.6 0-2.7.6-3.7 1.4v9.3zM176.8 36.5c-4.7 0-6.8-3.5-6.8-8.3 0-4.9 2.1-8.3 6.8-8.3 4.7 0 6.8 3.5 6.8 8.3 0 4.8-2.2 8.3-6.8 8.3zm0-14.5c-3.4 0-4 2.7-4 6.1 0 3.4.7 6.1 4 6.1 3.4 0 4-2.7 4-6.1 0-3.4-.6-6.1-4-6.1zM193 36.5c-4.7 0-6.8-3.5-6.8-8.3 0-4.9 2.1-8.3 6.8-8.3 4.7 0 6.8 3.5 6.8 8.3 0 4.8-2.1 8.3-6.8 8.3zm0-14.5c-3.4 0-4 2.7-4 6.1 0 3.4.7 6.1 4 6.1 3.4 0 4-2.7 4-6.1.1-3.4-.6-6.1-4-6.1zM203.6 36.1V13.3h2.7v14.2l5.6-7.4h3.2L209 28l6.4 8.1h-3.2l-5.8-7.6v7.6h-2.8zM95.5 56.2c0-6.5 2.2-11.2 8.3-11.2 6.2 0 8.3 4.6 8.3 11.2 0 6.5-2.2 11.2-8.3 11.2-6.1-.1-8.3-4.7-8.3-11.2zm8.4-8.9c-4.6 0-5.6 3.5-5.6 8.9s1 8.9 5.6 8.9 5.6-3.5 5.6-8.9c-.1-5.5-1.1-8.9-5.6-8.9zM123 67.3c-1.7 0-3.2-.7-4-1.3v6.8h-2.7V50.9h2.3l.2 1.6c.7-1 2.5-1.9 4.4-1.9 4.7 0 6 3.8 6 8.3-.1 5.1-1.8 8.4-6.2 8.4zm-4-3.5c.8.6 2.1 1.3 3.6 1.3 3.1 0 3.8-2.5 3.8-6.2 0-3.8-.6-6.1-3.6-6.1-1.6 0-2.9.8-3.8 1.6v9.4zM134.6 60.1c.2 3.4 1 5 4.3 5 1.7 0 3.5-.4 4.7-.9l.4 2.1c-1.3.6-3.4 1-5.2 1-5.8 0-7-3.9-7-8.4 0-4.6 1.5-8.2 6.4-8.2 4.4 0 6.2 3.1 6.2 6.9v2.6h-9.8zm0-2.1h7.3v-.6c0-3-.9-4.8-3.6-4.8-3.1 0-3.7 2.2-3.7 5.4zM157.7 66.9V55.3c0-1.5-.6-2.2-2.2-2.2-1.7 0-3.4.6-4.5 1.1V67h-2.7V51h2.2l.2 1.4c1.3-.9 3.3-1.7 5.5-1.7 2.7 0 4.2 1.6 4.2 4.4v12h-2.7zM177.2 67.3c-1.8 0-4.6-.5-6-1.1l.5-2.2c1.4.6 3.4 1.1 5.4 1.1 3 0 4.4-1.1 4.4-3.5 0-2.6-1.2-3.4-4.5-4.4-3.9-1.2-6-2.5-6-6.2 0-4 2.1-6 6.7-6 2 0 3.8.4 5.2.9l-.5 2.2c-1.3-.5-3-.9-4.7-.9-3.2 0-4.1 1.1-4.1 3.6s.8 2.9 3.8 3.9c4 1.4 6.6 2.4 6.6 6.5.3 4.2-2.5 6.1-6.8 6.1zM193.7 67.3c-4.7 0-6.8-3.5-6.8-8.3 0-4.9 2.1-8.3 6.8-8.3 4.7 0 6.8 3.5 6.8 8.3 0 4.8-2.1 8.3-6.8 8.3zm0-14.5c-3.4 0-4 2.7-4 6.1 0 3.4.7 6.1 4 6.1 3.4 0 4-2.7 4-6.1.1-3.4-.6-6.1-4-6.1zM206.8 50.9v11.7c0 1.5.6 2.2 2.2 2.2s3.3-.6 4.4-1.1V50.9h2.7v16h-2.2l-.2-1.4c-1.3.9-3.3 1.7-5.4 1.7-2.7 0-4.2-1.6-4.2-4.4v-12h2.7zM228.7 53.1c-1.8.4-3.7 1-5 1.7v12.1H221v-16h2.2l.3 1.9c1-1 2.7-1.9 4.9-2.1l.3 2.4zM240.6 51.2l-.4 2.1c-.9-.3-2.3-.6-3.4-.6-3.6 0-3.9 2.4-3.9 6.1 0 3.8.3 6.1 3.9 6.1 1.1 0 2.5-.3 3.4-.6l.4 2.1c-.9.4-2.4.7-3.8.7-5.2 0-6.6-3.4-6.6-8.3s1.3-8.3 6.6-8.3c1.5.1 2.9.4 3.8.7zM245.9 60.1c.2 3.4 1 5 4.3 5 1.7 0 3.5-.4 4.7-.9l.4 2.1c-1.3.6-3.4 1-5.2 1-5.8 0-7-3.9-7-8.4 0-4.6 1.5-8.2 6.4-8.2 4.4 0 6.2 3.1 6.2 6.9v2.6h-9.8zm0-2.1h7.3v-.6c0-3-.9-4.8-3.6-4.8-3 0-3.7 2.2-3.7 5.4z"/>
	<g class="fboss-logo-rings">
		<path class="fboss-logo-ring-1" fill="#4967a9" d="M35.5 82L0 61.5v-41L35.5 0 71 20.5v41L35.5 82zM3.7 59.3l31.8 18.3 31.8-18.3V22.6L35.5 4.3 3.7 22.6v36.7z"/>
		<path class="fboss-logo-ring-2" fill="#36c6f4" d="M35.5 64.8c-1.8 0-3.5-.4-4.8-1.2l-12.4-7.1c-2.7-1.6-4.8-5.2-4.8-8.4V33.8c0-3.1 2.1-6.8 4.8-8.4l12.4-7.1c1.3-.8 3-1.2 4.8-1.2s3.5.4 4.8 1.2l12.4 7.1c2.7 1.6 4.8 5.2 4.8 8.4v14.3c0 3.1-2.1 6.8-4.8 8.4l-12.4 7.1c-1.3.8-3 1.2-4.8 1.2zm0-43.9c-1.1 0-2.2.2-3 .7l-12.4 7.1c-1.6.9-3 3.3-3 5.2v14.3c0 1.8 1.4 4.2 3 5.2l12.4 7.1c1.5.9 4.5.9 6 0l12.4-7.1c1.6-.9 3-3.3 3-5.2V33.8c0-1.8-1.4-4.2-3-5.2l-12.4-7.1c-.8-.4-1.9-.6-3-.6z"/>
		<path class="fboss-logo-ring-3" fill="#ffffff" d="M35.5 50.8c-5.4 0-9.8-4.4-9.8-9.8s4.4-9.8 9.8-9.8 9.8 4.4 9.8 9.8-4.4 9.8-9.8 9.8zm0-15.9c-3.3 0-6.1 2.7-6.1 6.1s2.7 6.1 6.1 6.1 6.1-2.7 6.1-6.1-2.8-6.1-6.1-6.1z"/>
	</g>
</svg>
