<svg class="flow-logo" xmlns="http://www.w3.org/2000/svg" viewBox="0 0 727.95 300">
  <title>Flow logo</title>
  <g class="flow-logo-mark">
    <path fill="#ffca20" opacity=".7" d="M224.74 156.64l-84.11-84.1h84.11z"/>
    <path fill="#ffca20" opacity=".7" d="M81.72 0l84.11 84.1H81.72z"/>
    <path fill="#ffcf39" opacity=".9" d="M84.45 131.79L.34 47.67h101.13v84.11zm73.89 84.1L242.45 300h-84.11z"/>
    <path fill="#ffe490" opacity=".7" d="M101.47 215.9l-84.1-84.12h84.11v84.11zm90.58-42.57L125 106.24h67.08zm7.84 118.84l-76.28-76.27h76.28z"/>
    <path fill="#fcbc7c" opacity=".9" d="M101.47 114.63l-84-84h84z"/>
    <path fill="#f9a040" opacity=".8" d="M123.95 215.89L208.06 300h-84.11v-84.11z"/>
    <path fill="#f9a040" opacity=".7" d="M209.08 249.47l-84-84h84z"/>
    <path fill="#ffcf39" opacity=".9" d="M125 106.24l83.09 83.09H125v-83.09z"/>
    <path fill="#ffc737" opacity=".7" d="M101.47 299.67L0 198.18h101.47v101.48z"/>
  </g>
  <path class="flow-logo-text" fill="#eee" d="M306.7 157.17h44v10.75h-44v114.25h-12.5V167.92h-25v-10.75h25v-21q0-17.5 9.75-27.63t27.5-10.13q13.5 0 20.25 6.75l-3.5 10q-6.25-5.5-15.75-5.5-12.25 0-19 7.13t-6.75 20.63zm70 94.75q0 11.5 3.63 16.25t12.13 4.75a35 35 0 0 0 16.5-3.5l-1.75 12a38.91 38.91 0 0 1-16.5 3.25q-13.5 0-20-7.62t-6.5-23.87V99.67h12.5zM519.58 172q15.87 17.38 15.88 47.63t-15.87 47.62Q503.7 284.67 476 284.67t-43.62-17.37q-15.88-17.37-15.87-47.62T432.33 172q15.87-17.33 43.67-17.33T519.58 172zm-78.12 7.88q-12.5 14.5-12.5 39.75t12.5 39.75q12.5 14.5 34.5 14.5t34.5-14.5q12.5-14.5 12.5-39.75t-12.5-39.75q-12.5-14.5-34.5-14.5t-34.51 14.54zM728 157.17l-42.75 125H672.7l-39.5-109.25-38.5 109.25h-12.5l-42.75-125h14l35 110.25 39-110.25H640l38.7 110.25L714 157.17z"/>
</svg>
